<?xml version="1.0" standalone="no"?>
<!DOCTYPE svg PUBLIC "-//W3C//DTD SVG 20010904//EN"
 "http://www.w3.org/TR/2001/REC-SVG-20010904/DTD/svg10.dtd">
<svg version="1.0" xmlns="http://www.w3.org/2000/svg"
 width="200.000000pt" height="200.000000pt" viewBox="0 0 200.000000 200.000000"
 preserveAspectRatio="xMidYMid meet">
<metadata>
Created by potrace 1.16, written by Peter Selinger 2001-2019
</metadata>
<g transform="translate(0.000000,200.000000) scale(0.100000,-0.100000)"
fill="#000000" stroke="none">
<path d="M47 1953 c-8 -12 -4 -473 3 -473 6 0 104 71 117 84 3 2 -5 17 -16 33
-21 27 -21 30 -4 71 12 32 19 40 27 31 8 -8 8 -13 -1 -16 -15 -5 -17 -39 -4
-48 5 -3 13 -1 16 5 5 8 11 7 21 -1 20 -16 7 -30 -22 -23 -18 5 -24 2 -24 -9
0 -27 16 -27 50 -2 30 22 60 32 60 21 0 -3 -4 -16 -10 -30 -6 -18 -6 -26 1
-26 6 0 7 -5 3 -12 -5 -8 0 -9 14 -6 13 4 22 1 22 -5 0 -16 20 15 20 31 0 7
-4 11 -9 8 -4 -3 -17 1 -27 9 -18 14 -18 14 6 15 18 0 30 -9 42 -31 13 -22 24
-29 40 -27 13 2 25 6 28 10 17 22 40 -36 41 -104 0 -9 9 -18 20 -21 22 -6 25
3 7 22 -11 11 -9 13 10 8 32 -8 52 1 52 23 0 15 6 17 38 13 28 -4 43 0 55 12
16 16 18 15 36 -6 20 -25 57 -20 47 6 -3 8 -1 15 4 15 16 0 12 -36 -5 -50 -24
-20 8 -50 52 -48 46 2 51 14 8 22 -34 7 -34 7 -28 51 5 43 5 45 -20 45 -16 0
-27 -7 -30 -17 -4 -14 -5 -12 -6 5 -1 17 4 22 22 22 28 0 67 26 67 46 0 9 -11
14 -31 14 -17 0 -40 5 -51 11 -16 8 -23 8 -30 -2 -7 -11 -11 -11 -15 -1 -2 6
-11 12 -18 12 -12 0 -27 22 -29 43 -1 4 -8 12 -16 17 -8 5 -11 10 -6 10 5 0 3
7 -4 15 -10 12 -10 15 1 15 9 0 10 3 3 8 -6 4 -9 26 -6 50 4 36 7 42 28 42 13
0 24 5 24 10 0 6 7 10 15 10 8 0 15 7 15 15 0 8 -4 15 -9 15 -5 0 -8 14 -6 30
3 23 0 30 -13 31 -9 0 -51 2 -92 4 -41 2 -114 1 -161 -2 -76 -5 -86 -8 -82
-23 4 -14 -6 -19 -52 -28 -67 -14 -77 -10 -73 26 3 26 1 27 -54 30 -31 2 -59
-1 -61 -5z m492 -173 c-2 -27 -7 -50 -13 -50 -6 0 -5 -4 3 -9 8 -5 11 -16 7
-29 -6 -19 -13 -21 -49 -15 -23 3 -78 6 -122 7 -116 3 -125 4 -132 24 -9 21
-43 51 -60 52 -7 0 -13 5 -13 11 0 6 11 8 28 5 15 -3 47 -8 70 -12 42 -6 44
-8 40 -35 -3 -17 -1 -32 4 -35 4 -3 8 11 8 31 0 30 3 35 18 31 9 -3 40 -7 67
-10 31 -3 17 2 -35 12 -94 20 -96 17 50 51 133 30 131 30 129 -29z"/>
<path d="M736 1953 c-4 -4 -22 -6 -40 -5 l-34 3 4 -113 c3 -62 7 -119 9 -125
2 -7 -1 -12 -7 -10 -7 1 -13 -10 -14 -25 -2 -24 1 -27 44 -33 26 -3 90 -7 143
-9 53 -2 102 -7 108 -10 6 -4 16 4 23 18 6 14 14 26 18 26 19 0 21 -173 2
-192 -7 -7 -15 1 -26 24 -15 31 -15 37 -1 72 15 36 15 38 0 32 -9 -3 -55 -9
-101 -13 -47 -3 -80 -9 -73 -13 6 -4 9 -12 5 -18 -3 -6 0 -13 6 -16 7 -4 -2
-4 -19 -1 -32 4 -33 3 -33 -29 0 -29 3 -33 20 -29 11 3 31 2 46 -1 21 -6 25
-12 22 -31 -4 -19 1 -26 24 -36 27 -11 28 -13 12 -30 -16 -18 -16 -19 0 -19 9
0 14 -4 11 -10 -11 -18 -53 -11 -60 10 -5 16 -10 18 -24 10 -10 -5 -21 -6 -25
-3 -3 3 -6 1 -6 -5 0 -7 12 -12 26 -12 17 0 28 -7 31 -18 2 -10 19 -22 36 -28
18 -5 32 -15 32 -23 0 -17 -50 -49 -86 -54 -29 -5 -28 -23 9 -90 31 -58 49
-74 63 -60 8 8 7 13 0 17 -6 4 -11 12 -11 18 0 17 51 -1 71 -25 20 -24 25 -17
9 13 -15 28 42 186 62 174 5 -3 3 -11 -5 -17 -9 -7 -17 -31 -19 -53 -3 -34 0
-41 12 -36 13 5 13 4 1 -12 -13 -16 -12 -16 13 -5 15 7 34 24 41 38 8 15 14
20 15 11 0 -10 9 -5 25 14 13 16 22 33 18 39 -3 5 -10 3 -15 -7 -5 -9 -15 -16
-23 -16 -8 0 -18 -6 -22 -12 -4 -7 -18 -19 -30 -25 -19 -11 -21 -10 -17 2 4 8
12 15 20 15 8 0 14 4 14 9 0 5 16 19 35 32 l35 24 -2 110 c-1 86 -3 99 -8 60
-5 -38 -7 -42 -8 -17 -1 17 -7 32 -13 32 -7 0 -9 -10 -7 -25 3 -14 1 -25 -3
-25 -14 0 -10 -38 4 -43 9 -3 7 -10 -6 -23 -18 -19 -18 -19 -11 1 7 19 7 19
-17 -1 -39 -35 -46 -36 -46 -8 0 17 3 22 10 15 6 -6 14 -5 23 4 17 17 19 39 2
29 -8 -5 -9 -2 -5 10 4 10 7 21 7 24 0 4 4 1 9 -6 6 -11 9 -9 14 7 2 11 -1 28
-9 38 -12 16 -15 16 -25 3 -9 -13 -10 -12 -5 3 3 10 6 34 6 53 0 27 4 34 19
34 11 0 23 5 26 10 3 6 15 10 26 10 13 0 19 7 20 23 4 96 4 193 1 200 -2 4
-10 3 -18 -4 -20 -17 -24 -9 -17 34 6 39 19 49 26 20 3 -10 5 7 6 38 1 38 -3
59 -12 62 -21 8 -352 8 -361 0z"/>
<path d="M1167 1953 c-4 -3 -7 -19 -7 -35 l0 -28 223 0 c238 0 408 -12 497
-35 30 -8 42 -12 25 -9 -68 12 -423 16 -441 6 -18 -11 -18 -11 1 -12 72 -1
456 -53 474 -64 13 -8 17 18 16 104 l0 75 -391 3 c-215 1 -393 -1 -397 -5z"/>
<path d="M1540 1579 c-97 -74 -97 -75 -75 -99 23 -25 30 -25 63 0 22 18 27 19
34 6 10 -17 7 -66 -3 -60 -4 2 -10 0 -13 -5 -4 -5 2 -12 11 -14 13 -3 12 -5
-5 -6 -15 -1 -21 -5 -16 -13 5 -8 -6 -9 -41 -5 -26 4 -54 7 -61 7 -23 0 -16
15 16 33 37 22 37 30 4 52 -25 16 -26 16 -72 -22 -26 -21 -53 -43 -60 -50 -7
-7 -20 -17 -30 -22 -14 -8 -9 -16 33 -55 28 -25 55 -45 61 -46 6 0 23 -14 37
-31 25 -31 55 -52 88 -65 9 -3 22 -16 28 -28 12 -21 51 -34 51 -16 0 5 6 7 14
4 7 -3 16 2 19 10 4 9 12 13 20 11 7 -3 21 2 30 12 119 121 177 184 177 191 0
4 -22 33 -49 63 l-49 54 -23 -20 -24 -20 18 21 c9 11 17 24 17 28 0 9 -121
136 -129 136 -3 -1 -35 -23 -71 -51z"/>
<path d="M235 1528 c-16 -6 -54 -29 -84 -52 -30 -22 -57 -41 -60 -41 -25 -1
-44 -26 -45 -61 0 -21 4 -38 9 -38 6 1 37 5 70 9 65 7 99 25 50 26 -28 0 -29
1 -7 9 12 5 22 13 22 18 0 4 34 16 75 27 99 24 107 35 62 80 -37 37 -45 39
-92 23z"/>
<path d="M579 1401 c-15 -34 -21 -36 -69 -20 -24 9 -34 9 -39 0 -4 -6 -22 -16
-40 -21 -27 -8 -31 -7 -21 5 15 19 4 22 -62 17 -41 -3 -58 -8 -58 -18 0 -8 5
-14 11 -14 5 0 7 5 4 10 -10 16 11 12 25 -5 10 -13 9 -15 -8 -15 -12 0 -24 -4
-27 -10 -3 -5 -18 -10 -31 -10 -25 0 -25 -1 16 -52 23 -29 45 -53 48 -53 4 1
19 7 34 15 24 11 30 11 45 -2 10 -8 27 -18 38 -23 18 -7 18 -8 -7 -17 -37 -13
-36 -28 2 -28 17 0 33 0 38 0 4 -1 8 8 10 20 2 13 11 20 25 20 20 0 20 0 1 15
-18 15 -18 15 8 9 19 -4 29 -1 36 13 9 14 13 16 23 6 9 -10 10 -13 1 -13 -6 0
-9 -7 -6 -15 4 -10 20 -15 50 -15 37 0 46 -4 54 -22 7 -19 9 -17 9 18 1 44 -8
57 -48 69 -20 6 -23 4 -18 -9 7 -17 -1 -20 -27 -10 -19 7 -22 34 -4 34 9 0 9
3 0 12 -10 10 -8 16 8 28 26 19 30 74 8 97 -14 13 -17 12 -29 -16z"/>
<path d="M1941 1300 c-1 -36 -8 -89 -16 -119 -8 -30 -12 -57 -10 -61 2 -4 -1
-24 -7 -46 -6 -21 -10 -47 -9 -57 1 -10 -5 -30 -14 -44 -10 -14 -12 -22 -6
-19 18 12 12 -9 -9 -32 -11 -12 -20 -28 -20 -37 0 -8 -7 -15 -15 -15 -8 0 -15
-4 -15 -8 0 -14 -103 -43 -111 -30 -8 13 -29 2 -29 -15 0 -7 -10 -13 -22 -14
-13 0 -66 -4 -118 -8 -70 -5 -98 -11 -107 -23 -8 -9 -13 -11 -13 -4 0 7 -9 12
-20 12 -11 0 -20 5 -20 10 0 6 -7 10 -16 10 -12 0 -14 -9 -12 -42 4 -51 28
-65 29 -16 l0 33 16 -32 c21 -42 40 -42 58 0 l14 32 1 -33 c0 -31 2 -33 28
-28 15 3 54 8 87 12 33 3 67 10 77 15 9 5 23 8 30 7 8 -2 14 8 16 25 2 15 8
27 13 27 6 0 7 -9 4 -20 -5 -14 -2 -20 9 -20 10 0 16 9 16 25 0 14 5 25 11 25
6 0 8 -9 4 -20 -4 -14 -2 -20 9 -20 8 0 17 4 20 9 3 5 15 11 27 14 20 5 20 5
4 -13 -13 -14 -13 -19 -3 -23 8 -4 7 -6 -4 -6 -10 -1 -18 -8 -18 -17 0 -8 -16
-40 -36 -70 -27 -40 -42 -54 -60 -54 -15 0 -22 -5 -18 -13 3 -9 -6 -12 -34 -9
-26 3 -49 -3 -71 -16 -18 -11 -40 -18 -50 -15 -22 5 -48 -22 -31 -32 8 -5 3
-12 -12 -19 -14 -7 -22 -19 -20 -30 2 -11 -1 -15 -7 -11 -10 5 -16 -14 -12
-37 0 -5 -4 -8 -9 -8 -6 0 -10 -8 -10 -17 0 -16 -2 -16 -10 -3 -9 13 -12 12
-25 -4 -21 -28 -19 -49 4 -41 13 4 20 0 24 -15 3 -13 1 -18 -6 -13 -7 4 -4 -5
6 -20 17 -26 17 -28 0 -52 -10 -13 -30 -27 -44 -30 -23 -5 -117 11 -174 30
-11 4 -5 -2 13 -14 21 -14 30 -26 25 -34 -10 -16 -10 -37 -1 -64 9 -27 -16
-33 -26 -7 -5 13 -9 14 -21 4 -8 -7 -15 -9 -15 -4 0 5 -4 3 -9 -5 -5 -7 -6
-22 -4 -32 5 -19 19 -19 397 -17 l391 3 1 570 c0 314 -2 602 -6 640 l-7 70 -2
-65z"/>
<path d="M50 1310 c-1 -3 -2 -68 -3 -145 l-2 -140 190 0 c178 0 198 2 309 30
126 32 129 42 13 44 -48 1 -62 -3 -75 -19 -17 -20 -19 -20 -127 -6 -220 29
-245 35 -245 61 0 13 6 26 13 28 9 4 9 8 -2 15 -8 6 -12 19 -8 31 4 15 -1 26
-18 37 -26 17 -27 41 0 60 16 12 15 13 -13 11 -18 -1 -32 -4 -32 -7z"/>
<path d="M1773 977 c-18 -5 -33 -13 -33 -16 0 -3 -30 -7 -67 -9 -37 -2 -72 -6
-78 -11 -5 -4 -30 -6 -55 -5 -48 3 -74 -11 -66 -33 3 -7 1 -13 -4 -13 -5 0
-12 9 -15 20 -9 30 -42 25 -53 -7 l-10 -28 -11 28 c-8 21 -17 27 -41 27 -28 0
-30 -3 -30 -35 0 -39 -10 -36 138 -37 28 -1 42 -5 42 -14 0 -21 28 -17 40 5 6
13 17 17 30 14 13 -3 20 0 20 8 0 9 3 10 11 2 7 -7 24 -8 52 -1 23 6 48 11 55
12 8 1 17 8 22 15 6 11 8 11 12 0 6 -18 28 -2 28 22 0 10 4 19 9 19 5 0 7 -10
4 -21 -4 -16 -2 -20 8 -17 8 2 16 15 18 29 1 13 8 27 14 31 23 14 -7 25 -40
15z"/>
<path d="M109 971 c-22 -5 -25 -11 -24 -44 1 -24 9 -43 21 -52 18 -13 18 -14
1 -15 -16 0 -16 -2 -2 -30 12 -23 12 -30 3 -30 -9 0 -8 -3 2 -10 13 -9 13 -11
0 -20 -21 -14 -33 -12 -24 3 4 6 -3 2 -15 -10 -11 -12 -21 -29 -21 -36 0 -12
11 -11 68 4 96 26 100 22 7 -9 l-80 -27 -3 -89 -3 -89 43 -41 c50 -48 159
-107 238 -130 75 -22 215 -46 270 -47 60 -1 102 -17 47 -18 -24 -1 -36 -5 -32
-12 4 -6 12 -8 19 -6 6 2 20 1 31 -4 14 -5 7 -8 -26 -8 -25 -1 -49 2 -52 6 -4
3 -17 8 -30 9 -54 6 -217 44 -271 63 -60 21 -142 67 -186 104 -14 12 -9 5 9
-16 30 -32 32 -37 15 -38 -10 0 -13 -3 -6 -6 7 -2 17 -13 22 -23 10 -18 9 -19
-31 -5 -55 20 -59 19 -29 -6 24 -20 24 -20 3 -16 -20 5 -41 -17 -25 -26 23
-13 85 -28 136 -31 64 -5 81 -16 91 -58 9 -33 2 -34 -49 -7 -23 12 -50 19 -65
16 -18 -4 -31 2 -46 19 -11 13 -31 25 -45 26 l-25 3 -1 -108 c0 -59 2 -110 5
-111 3 -2 30 -1 59 1 52 6 52 6 31 24 -12 11 -19 19 -14 19 4 0 2 7 -5 15 -8
9 -9 15 -2 15 6 0 13 -3 16 -8 2 -4 46 -7 98 -7 100 0 145 16 155 56 6 23 1
22 53 4 23 -8 99 -24 169 -36 113 -19 156 -29 123 -29 -7 0 -12 -11 -12 -25 0
-14 3 -25 6 -25 13 0 35 31 32 47 -3 15 12 20 102 35 58 10 119 20 135 23 17
3 49 9 73 12 l42 6 2 51 c4 139 1 171 -18 171 -12 0 -18 -6 -16 -16 3 -22 -49
-43 -87 -34 -23 5 -31 12 -31 28 -1 20 -2 20 -11 4 -8 -13 -14 -15 -29 -7 -26
14 -30 13 -30 -10 0 -11 5 -20 11 -20 5 0 7 -5 3 -11 -5 -8 -10 -7 -16 4 -5
10 -15 14 -25 10 -9 -4 -21 1 -29 12 -8 10 -14 14 -14 8 0 -6 -6 -13 -14 -16
-10 -4 -12 0 -8 15 4 17 2 20 -12 15 -10 -4 -20 -7 -22 -7 -2 0 -4 -12 -5 -27
0 -16 -3 -22 -6 -15 -4 10 -8 9 -17 -4 -7 -9 -18 -14 -24 -10 -17 10 -15 46 3
51 48 15 50 18 20 25 -26 6 -28 8 -10 14 11 4 28 12 38 17 11 6 17 6 17 -1 0
-5 14 -8 32 -6 22 3 36 -2 45 -13 11 -15 14 -14 34 6 13 12 20 26 16 30 -4 3
-13 1 -19 -5 -17 -17 -28 -15 -21 3 3 9 2 15 -3 14 -5 -1 -18 -1 -29 0 -18 1
-18 2 4 18 22 15 25 15 36 0 7 -10 16 -13 26 -6 11 7 11 9 0 9 -8 0 -11 7 -8
20 3 11 1 18 -4 14 -9 -5 -12 5 -11 41 1 17 0 17 -4 3 -8 -28 -24 -21 -31 12
-7 36 -22 48 -34 29 -7 -11 -9 -10 -9 4 0 10 -4 27 -10 37 -8 15 -14 17 -38 8
-22 -9 -34 -7 -57 5 -27 15 -28 16 -7 17 13 0 22 6 22 15 0 8 5 15 10 15 13 0
49 -20 68 -38 12 -11 17 -10 27 5 19 25 -10 54 -42 42 -15 -5 -32 -3 -50 6
-15 8 -33 15 -40 15 -7 0 -17 9 -23 21 -12 22 -54 23 -56 2 -1 -7 -2 -17 -3
-21 0 -5 -24 -9 -51 -9 -47 -1 -50 1 -51 26 0 14 -3 20 -6 14 -2 -7 -12 -13
-22 -13 -9 0 -23 -6 -29 -12 -10 -10 -15 -10 -21 1 -12 18 -41 7 -41 -16 0
-15 -9 -18 -50 -19 -35 0 -50 3 -50 13 0 7 -4 13 -9 13 -4 0 -6 -10 -4 -22 3
-15 -3 -27 -15 -35 -18 -11 -20 -9 -24 27 -3 35 0 41 22 49 207 80 238 90 273
87 20 -2 37 1 37 5 0 5 -10 10 -22 10 -13 1 -5 5 17 9 23 4 30 8 17 9 -13 0
-20 6 -17 11 8 14 1 13 -41 -5 -27 -11 -46 -12 -78 -5 -25 5 -67 6 -106 0
-120 -16 -145 -16 -145 0 0 8 -5 22 -10 30 -5 8 -11 30 -14 49 -7 37 -13 42
-52 32z"/>
<path d="M646 965 c-11 -8 -30 -15 -43 -15 -13 0 -23 -5 -23 -10 0 -7 13 -8
36 -4 27 5 35 4 30 -5 -5 -7 2 -11 18 -11 19 0 26 -5 26 -20 0 -31 53 -52 136
-53 40 0 71 -4 68 -8 -3 -6 89 -39 110 -39 3 0 29 -11 57 -24 l50 -25 -3 27
c-3 23 -13 29 -85 55 -47 17 -83 35 -83 43 0 17 -58 60 -94 68 -15 4 -43 2
-62 -4 -42 -14 -74 -5 -74 21 0 23 -36 25 -64 4z"/>
</g>
</svg>
