<?xml version="1.0" standalone="no"?>
<!DOCTYPE svg PUBLIC "-//W3C//DTD SVG 20010904//EN"
 "http://www.w3.org/TR/2001/REC-SVG-20010904/DTD/svg10.dtd">
<svg version="1.0" xmlns="http://www.w3.org/2000/svg"
 width="100.000000pt" height="80.000000pt" viewBox="0 0 252.000000 200.000000"
 preserveAspectRatio="xMidYMid meet">

<g transform="translate(0.000000,200.000000) scale(0.100000,-0.100000)"
fill="#000000" stroke="none">
<path d="M1010 1749 c-129 -100 -254 -195 -277 -213 -23 -17 -42 -34 -43 -38
0 -3 34 -33 76 -67 l76 -60 119 90 c65 49 125 92 132 95 10 3 32 -61 82 -243
38 -136 71 -251 74 -255 3 -4 38 108 76 247 39 140 74 255 78 255 5 0 65 -42
135 -94 l126 -94 59 46 c32 26 67 54 78 62 18 14 16 17 -34 56 -28 22 -124 97
-212 165 -232 181 -295 229 -303 229 -4 0 -113 -81 -242 -181z"/>
<path d="M352 1237 c-265 -208 -281 -223 -263 -237 162 -130 542 -420 551
-420 12 0 118 78 138 102 10 12 -9 31 -108 109 -65 52 -119 97 -120 101 0 10
16 14 315 63 154 25 291 49 305 52 23 5 -296 68 -532 104 -49 7 -88 18 -88 24
1 5 55 52 120 103 l120 93 -33 27 c-17 16 -52 44 -77 64 l-45 36 -283 -221z"/>
<path d="M1788 1399 c-38 -28 -68 -54 -68 -59 0 -5 51 -51 114 -102 63 -51
115 -96 115 -100 1 -7 -58 -21 -154 -37 -237 -40 -473 -86 -470 -91 3 -4 26
-10 52 -13 67 -7 533 -86 560 -95 20 -6 9 -18 -97 -102 -66 -52 -118 -99 -117
-105 6 -19 140 -116 153 -111 12 5 501 383 533 412 17 16 36 -2 -224 207 -236
190 -311 247 -322 246 -4 0 -38 -23 -75 -50z"/>
<path d="M1237 935 c-8 -28 -41 -144 -72 -258 -32 -114 -62 -207 -67 -207 -5
0 -66 40 -135 90 l-125 89 -42 -28 c-58 -41 -112 -88 -106 -93 10 -9 496 -385
530 -410 l35 -26 230 180 c127 99 252 199 279 222 l49 42 -75 62 -76 62 -125
-95 c-69 -52 -129 -95 -134 -95 -4 0 -21 46 -37 103 -15 56 -41 149 -57 207
-16 58 -36 128 -43 155 l-14 50 -15 -50z"/>
<path d="M445 315 c0 -54 3 -65 17 -65 11 0 15 6 11 20 -3 11 -1 20 5 20 14 0
33 -25 25 -33 -3 -4 4 -7 18 -7 l24 0 -27 27 -26 26 21 18 c20 16 20 18 4 19
-10 0 -16 -4 -13 -8 2 -4 -4 -13 -15 -20 -18 -11 -19 -9 -19 28 0 25 -5 40
-12 40 -9 0 -13 -20 -13 -65z"/>
<path d="M1890 370 c0 -5 5 -10 10 -10 6 0 10 5 10 10 0 6 -4 10 -10 10 -5 0
-10 -4 -10 -10z"/>
<path d="M2050 370 c0 -5 5 -10 10 -10 6 0 10 5 10 10 0 6 -4 10 -10 10 -5 0
-10 -4 -10 -10z"/>
<path d="M128 364 c16 -8 16 -101 0 -107 -7 -3 6 -6 28 -6 47 -1 71 18 58 46
-4 10 -8 29 -8 43 -1 23 -5 25 -46 27 -25 1 -39 0 -32 -3z m62 -24 c0 -13 -7
-20 -20 -20 -13 0 -20 7 -20 20 0 13 7 20 20 20 13 0 20 -7 20 -20z m5 -55 c0
-13 -8 -21 -22 -23 -19 -3 -23 1 -23 23 0 22 4 26 23 23 14 -2 22 -10 22 -23z"/>
<path d="M785 353 c-6 -10 -8 -36 -5 -58 4 -34 9 -40 30 -42 14 -1 18 0 8 3
-13 4 -18 16 -18 39 0 24 5 35 18 38 15 4 15 5 0 6 -9 0 -18 8 -20 16 -2 13
-5 13 -13 -2z"/>
<path d="M1657 352 c-33 -37 -12 -102 33 -102 25 0 50 10 50 21 0 5 -9 4 -20
-3 -29 -19 -54 1 -58 45 -3 32 0 37 23 43 19 5 30 1 41 -12 14 -18 15 -18 12
1 -4 28 -58 33 -81 7z"/>
<path d="M250 332 c0 -5 11 -7 25 -4 18 3 25 0 25 -12 0 -9 -8 -16 -19 -16
-22 0 -45 -25 -37 -39 4 -5 23 -10 44 -9 l38 0 -5 42 c-6 38 -9 41 -38 44 -18
2 -33 -1 -33 -6z m50 -52 c0 -12 -28 -25 -36 -17 -9 9 6 27 22 27 8 0 14 -5
14 -10z"/>
<path d="M360 325 c-14 -17 -6 -31 23 -37 27 -5 20 -23 -9 -21 -13 1 -24 -3
-24 -8 0 -6 15 -9 32 -7 42 4 51 34 14 48 -34 13 -35 34 -1 26 14 -4 25 -2 25
4 0 16 -46 12 -60 -5z"/>
<path d="M566 325 c-19 -19 -20 -29 -6 -56 11 -19 54 -27 64 -11 2 4 -7 8 -22
7 -17 0 -28 6 -30 18 -3 13 3 17 28 17 25 0 31 4 28 18 -4 23 -41 27 -62 7z
m49 -5 c4 -6 -5 -10 -20 -10 -15 0 -24 4 -20 10 3 6 12 10 20 10 8 0 17 -4 20
-10z"/>
<path d="M658 333 c6 -3 12 -20 12 -38 0 -18 -6 -36 -12 -38 -7 -3 0 -6 16 -6
24 -1 26 1 16 13 -18 23 -9 61 15 61 24 0 35 -53 13 -66 -9 -6 -3 -9 17 -9 17
0 25 4 18 8 -6 4 -13 23 -15 42 -3 34 -4 35 -48 36 -25 1 -39 0 -32 -3z"/>
<path d="M1769 298 c6 -43 6 -43 50 -45 33 -1 41 1 32 10 -6 6 -11 26 -11 44
0 25 -4 33 -17 33 -14 0 -15 -2 -5 -9 19 -12 11 -65 -10 -69 -15 -3 -18 4 -18
37 0 27 -4 41 -13 41 -10 0 -12 -11 -8 -42z"/>
<path d="M1885 295 c0 -42 2 -45 25 -44 14 0 19 3 13 6 -8 2 -13 22 -13 44 0
25 -5 39 -12 39 -9 0 -13 -16 -13 -45z"/>
<path d="M1957 333 c-14 -14 -6 -34 18 -43 14 -5 25 -15 25 -21 0 -7 -10 -9
-25 -7 -14 3 -25 1 -25 -4 0 -5 12 -8 28 -6 38 4 44 43 8 52 -34 8 -34 30 -1
24 14 -3 25 -1 25 3 0 10 -44 12 -53 2z"/>
<path d="M2048 304 c3 -24 0 -39 -9 -45 -10 -6 -7 -9 11 -9 24 0 25 3 22 45
-3 26 -9 45 -16 45 -8 0 -11 -12 -8 -36z"/>
<path d="M2105 294 c0 -32 4 -44 15 -44 11 0 15 11 15 37 0 29 4 38 19 41 16
3 18 -1 14 -37 -3 -32 0 -41 12 -41 13 0 15 8 11 43 -6 41 -7 42 -46 44 l-40
2 0 -45z"/>
<path d="M2232 328 c-29 -29 -7 -78 34 -78 13 0 25 4 28 8 2 4 -7 8 -22 7 -17
0 -28 6 -30 18 -3 13 3 17 27 17 20 0 31 5 31 14 0 25 -47 35 -68 14z m48 -8
c0 -5 -9 -10 -20 -10 -11 0 -20 5 -20 10 0 6 9 10 20 10 11 0 20 -4 20 -10z"/>
</g>
</svg>
